<svg xmlns="http://www.w3.org/2000/svg" width="93" height="70" fill="none"><g clip-path="url(#prefix__clip0)"><path fill="#27292D" d="M73.22 32.55c0 15.786-12.688 28.583-28.34 28.583-15.65 0-28.339-12.797-28.339-28.583 0-15.786 12.688-28.583 28.34-28.583 15.651 0 28.34 12.797 28.34 28.583z"/><path fill="#E5E5E5" fill-rule="evenodd" d="M44.88 58.217c14.055 0 25.448-11.492 25.448-25.667S58.935 6.883 44.881 6.883c-14.055 0-25.448 11.492-25.448 25.667S30.826 58.217 44.88 58.217zm0 2.916c15.652 0 28.34-12.797 28.34-28.583 0-15.786-12.688-28.583-28.34-28.583-15.65 0-28.339 12.797-28.339 28.583 0 15.786 12.688 28.583 28.34 28.583z" clip-rule="evenodd"/><path fill="#9FD572" fill-rule="evenodd" d="M55.774 24.117c-1.808 2.457-5.824 3.533-10.489 3.533-4.688 0-8.72-1.087-10.515-3.57-2.33-.244-5.057-1.644-8.055-3.183-3.767-1.933-7.962-4.086-12.343-4.447 0 0-.752-.642 5.38-2.217 7.651-1.966 16.294-2.359 20.107-2.408 1.617-.896 3.464-1.442 5.426-1.442 1.958 0 3.802.544 5.416 1.436 3.321.008 12.65.31 20.842 2.414 6.13 1.575 5.379 2.217 5.379 2.217-4.38.36-8.576 2.514-12.343 4.447-3.326 1.708-6.317 3.243-8.805 3.22z" clip-rule="evenodd"/><path fill="#9FD572" d="M55.291 24.092c5.32.513 13.129-6.942 21.63-7.642-10.7-.562-15.216-.523-29.785 3.15-.77 2.586 2.834 3.978 8.155 4.492z"/><mask id="a" width="30" height="9" x="47" y="16" maskUnits="userSpaceOnUse"><path fill="#000" d="M55.291 24.092c5.32.513 13.129-6.942 21.63-7.642-10.7-.562-15.216-.523-29.785 3.15-.77 2.586 2.834 3.978 8.155 4.492z"/><path fill="#fff" d="M55.291 24.092c5.32.513 13.129-6.942 21.63-7.642-10.7-.562-15.216-.523-29.785 3.15-.77 2.586 2.834 3.978 8.155 4.492z"/></mask><g mask="url(#a)"><path fill="#F0595F" d="M71.795 11.543c-9.392-.84-22.845 3.345-28.397 5.542-2.02.758 4.916 7.233 5.436 7.408.521.175 34.702-11.9 22.961-12.95z"/></g><path fill="#9FD572" d="M36.003 24.092c-5.32.513-13.128-6.942-21.63-7.642 10.7-.562 15.216-.523 29.785 3.15.771 2.586-2.834 3.978-8.155 4.492z"/><mask id="b" width="31" height="9" x="14" y="16" maskUnits="userSpaceOnUse"><path fill="#00BC84" d="M36.003 24.092c-5.32.513-13.128-6.942-21.63-7.642 10.7-.562 15.216-.523 29.785 3.15.771 2.586-2.834 3.978-8.155 4.492z"/></mask><g mask="url(#b)"><path fill="#F0595F" d="M19.499 11.543c9.392-.84 22.845 3.345 28.397 5.542 2.02.758-4.916 7.233-5.436 7.408-.52.175-34.702-11.9-22.961-12.95z"/></g><path fill="#9FD572" d="M56.795 20.883c0 4.768-5.153 6.767-11.51 6.767-6.356 0-11.509-1.999-11.509-6.767 0-4.768 5.153-10.5 11.51-10.5 6.356 0 11.509 5.732 11.509 10.5z"/><ellipse cx="45.227" cy="22.75" fill="#27292D" opacity=".1" rx="1.272" ry=".933"/><ellipse cx="50.201" cy="20.883" fill="#9FD572" rx="2.429" ry="1.4"/><ellipse cx="41.04" cy="20.883" fill="#9FD572" rx="2.429" ry="1.4"/><path fill="#27292D" d="M50.88 18.906c-1.7.081-3.296 1.145-4.001 1.683-.216.164-.233.468-.023.64.617.506 2.034 1.382 4.216 1.125 1.52-.18 2.384-1.11 2.785-1.694a.648.648 0 0 0-.11-.878c-.473-.4-1.398-.946-2.867-.876zm-11.537 0c1.7.081 3.297 1.145 4.002 1.683.216.164.233.468.023.64-.618.506-2.034 1.382-4.216 1.125-1.52-.18-2.385-1.11-2.785-1.694a.65.65 0 0 1 .109-.878c.474-.4 1.4-.946 2.867-.876z"/><ellipse cx="49.623" cy="19.936" fill="#fff" rx=".578" ry=".45"/><ellipse cx="48.466" cy="20.745" fill="#fff" rx=".347" ry=".27"/><ellipse fill="#fff" rx=".578" ry=".45" transform="matrix(-1 0 0 1 38.403 19.935)"/><ellipse fill="#fff" rx=".347" ry=".27" transform="matrix(-1 0 0 1 37.362 20.745)"/><rect width="29.728" height="17.267" x="30.075" y="28.583" fill="#9B897D" rx="8.633"/><rect width="29.728" height="17.267" x="30.075" y="28.583" fill="#000" fill-opacity=".12" rx="8.633"/><rect width="3.007" height=".583" x="43.724" y="24.5" fill="#000" rx=".292"/><rect width="4.049" height=".583" x="43.145" y="15.283" fill="#000" opacity=".12" rx=".292"/><rect width="4.049" height=".583" x="43.145" y="14" fill="#000" opacity=".12" rx=".292"/><rect width="4.049" height=".583" x="43.145" y="12.717" fill="#000" opacity=".12" rx=".292"/><rect width="20.041" height="9.276" fill="#AD988B" rx="4.638" transform="matrix(-.90893 .41695 -.41107 -.9116 61.357 30.156)"/><rect width="20.028" height="9.282" fill="#9B897D" rx="4.641" transform="matrix(.95147 .30773 -.30299 .953 31.152 21.933)"/><rect width="20.028" height="9.282" fill="#000" fill-opacity=".1" rx="4.641" transform="matrix(.95147 .30773 -.30299 .953 31.152 21.933)"/><path fill="#9FD572" d="M48.813 30.567h5.205v5.717h-5.205z"/><path fill="#000" fill-opacity=".12" d="M48.813 30.567h5.205v5.717h-5.205z"/><rect width="2.313" height="5.95" x="50.202" y="26.017" fill="#9FD572" rx="1.157"/><rect width="2.328" height="5.17" fill="#9FD572" rx="1.164" transform="matrix(-.4968 -.86787 -.86416 .50321 55.479 29.787)"/><rect width="2.328" height="5.17" fill="#9FD572" rx="1.164" transform="matrix(.4968 -.86787 .86416 .50321 47.31 29.787)"/><ellipse cx="51.358" cy="27.3" fill="#000" fill-opacity=".45" rx=".81" ry=".817"/><ellipse cx="53.788" cy="29.4" fill="#000" fill-opacity=".45" rx=".81" ry=".817"/><ellipse cx="49.045" cy="29.4" fill="#000" fill-opacity=".45" rx=".81" ry=".817"/><g filter="url(#prefix__filter0_i)"><path fill="#EAEAEA" d="M73.22 32.55c0 3.754-.733 7.47-2.157 10.938a28.592 28.592 0 0 1-6.143 9.273 28.331 28.331 0 0 1-9.194 6.197 28.142 28.142 0 0 1-21.691 0 28.317 28.317 0 0 1-9.193-6.197 28.59 28.59 0 0 1-6.144-9.273 28.798 28.798 0 0 1-2.157-10.938h56.68z"/></g><rect width="61.19" height="6.533" x="14.343" y="31.967" fill="#B0B0B0" rx="3.267"/><ellipse cx="44.88" cy="35.233" fill="#EAEAEA" rx="1.272" ry="1.283"/><ellipse cx="48.351" cy="35.233" fill="#EAEAEA" rx="1.272" ry="1.283"/><ellipse cx="41.41" cy="35.233" fill="#EAEAEA" rx="1.272" ry="1.283"/><path fill="url(#prefix__paint0_linear)" d="M70.791 25.2l-19.086 1.05v4.55l12.146 12.6 6.94-18.2z"/><ellipse cx="44.418" cy="67.025" fill="#000" rx="14.575" ry=".992"/><g filter="url(#prefix__filter1_d)"><path fill="#12C06F" d="M80.91 25.287l7.232 7.416-.086 10.403-7.354 7.294-10.313-.087-7.232-7.416.086-10.403 7.353-7.294 10.314.087z"/><path stroke="#fff" stroke-width="2" d="M71.005 26.203l9.48.08 6.653 6.824-.079 9.579-6.765 6.71-9.48-.08-6.654-6.823.08-9.579 6.765-6.71z"/></g><path fill="#fff" fill-rule="evenodd" d="M74.202 39.96l6.29-6.344a1 1 0 0 1 1.42 0l.554.56a.999.999 0 0 1 0 1.408l-7.554 7.62a1 1 0 0 1-1.42 0l-4.085-4.12a1 1 0 0 1 0-1.408l.555-.56a1 1 0 0 1 1.42 0l2.82 2.844zM5.327 19.829a.35.35 0 0 1-.238.24l-1.822.528c-.337.098-.334.58.004.674l1.8.5a.35.35 0 0 1 .243.245l.493 1.813c.093.34.57.344.668.005l.527-1.837a.347.347 0 0 1 .237-.239l1.818-.529c.337-.098.334-.58-.004-.673l-1.796-.5a.348.348 0 0 1-.242-.244l-.499-1.815a.346.346 0 0 0-.668-.003l-.521 1.835zM72.658 5.273l.016.017c.04.038.09.066.145.082l1.12.311c.337.094.34.576.003.674l-1.138.331a.343.343 0 0 0-.148.088l-.002.002a.352.352 0 0 0-.087.15l-.33 1.15c-.097.338-.575.335-.668-.006l-.307-1.129a.34.34 0 0 0-.082-.146l-.016-.017a.354.354 0 0 0-.145-.082l-1.121-.311c-.338-.094-.341-.576-.004-.674l1.14-.33a.362.362 0 0 0 .149-.088l.002-.003c.04-.04.07-.092.087-.15l.327-1.148a.346.346 0 0 1 .668.003l.31 1.13a.339.339 0 0 0 .081.146z" clip-rule="evenodd"/></g><defs><filter id="prefix__filter0_i" width="56.679" height="28.583" x="16.541" y="32.55" color-interpolation-filters="sRGB" filterUnits="userSpaceOnUse"><feFlood flood-opacity="0" result="BackgroundImageFix"/><feBlend in="SourceGraphic" in2="BackgroundImageFix" result="shape"/><feColorMatrix in="SourceAlpha" result="hardAlpha" values="0 0 0 0 0 0 0 0 0 0 0 0 0 0 0 0 0 0 127 0"/><feOffset dx="-3" dy="-4"/><feComposite in2="hardAlpha" k2="-1" k3="1" operator="arithmetic"/><feColorMatrix values="0 0 0 0 0 0 0 0 0 0 0 0 0 0 0 0 0 0 0.25 0"/><feBlend in2="shape" result="effect1_innerShadow"/></filter><filter id="prefix__filter1_d" width="72.985" height="73.2" x="39.157" y="1.2" color-interpolation-filters="sRGB" filterUnits="userSpaceOnUse"><feFlood flood-opacity="0" result="BackgroundImageFix"/><feColorMatrix in="SourceAlpha" values="0 0 0 0 0 0 0 0 0 0 0 0 0 0 0 0 0 0 127 0"/><feOffset/><feGaussianBlur stdDeviation="12"/><feColorMatrix values="0 0 0 0 0 0 0 0 0 0 0 0 0 0 0 0 0 0 0.25 0"/><feBlend in2="BackgroundImageFix" result="effect1_dropShadow"/><feBlend in="SourceGraphic" in2="effect1_dropShadow" result="shape"/></filter><linearGradient id="prefix__paint0_linear" x1="72.526" x2="51.992" y1="38.5" y2="29.183" gradientUnits="userSpaceOnUse"><stop stop-color="#3DFFA4"/><stop offset="1" stop-color="#9FD572" stop-opacity="0"/></linearGradient><clipPath id="prefix__clip0"><path fill="#fff" d="M0 0h93v70H0z"/></clipPath></defs></svg>